HIERARCHY
ROOT Hips
{
  OFFSET -213.699 104.721 0.752556
  CHANNELS 6 Xposition Yposition Zposition Zrotation Xrotation Yrotation
  JOINT RightUpLeg
  {
    OFFSET -8.9458 -8.66707 0.101652
    CHANNELS 3 Zrotation Xrotation Yrotation
    JOINT RightLeg
    {
      OFFSET 0 -44.4227 1.3727
      CHANNELS 3 Zrotation Xrotation Yrotation
      JOINT RightFoot
      {
        OFFSET 0.253549 -42.0924 -1.46059
        CHANNELS 3 Zrotation Xrotation Yrotation
        JOINT RightToes
        {
          OFFSET 0.04 -4.41509 8.4991
          CHANNELS 3 Zrotation Xrotation Yrotation
          End Site
          {
            OFFSET -0.08 -0.137448 9.77979
          }
        }
      }
    }
  }
  JOINT Spine
  {
    OFFSET 0 11.8905 0
    CHANNELS 3 Zrotation Xrotation Yrotation
    JOINT Spine1
    {
      OFFSET 0 25.6574 0.127663
      CHANNELS 3 Zrotation Xrotation Yrotation
      JOINT HEad
      {
        OFFSET 0 8.73416 0.011341
        CHANNELS 3 Zrotation Xrotation Yrotation
        End Site
        {
          OFFSET -0.29 12.7742 2.51395
        }
      }
      JOINT LeftShoulder1
      {
        OFFSET 8.99 -0.362252 -0.22
        CHANNELS 3 Zrotation Xrotation Yrotation
        JOINT LeftArm
        {
          OFFSET 10.2827 -0.00337999 0.322123
          CHANNELS 3 Zrotation Xrotation Yrotation
          JOINT LeftForeArm
          {
            OFFSET 26.2597 0.099144 -1.42434
            CHANNELS 3 Zrotation Xrotation Yrotation
            JOINT LeftHand
            {
              OFFSET 22.0902 0.085362 1.02216
              CHANNELS 3 Zrotation Xrotation Yrotation
              End Site
              {
                OFFSET 13.419 -0.6 1.50291
              }
            }
          }
        }
      }
      JOINT RightShoulder
      {
        OFFSET -8.99 -0.362252 -0.22
        CHANNELS 3 Zrotation Xrotation Yrotation
        JOINT RightArm
        {
          OFFSET -10.2827 -0.00338 0.322123
          CHANNELS 3 Zrotation Xrotation Yrotation
          JOINT RightForeArm
          {
            OFFSET -26.364 0.099144 -1.42434
            CHANNELS 3 Zrotation Xrotation Yrotation
            JOINT RightHand
            {
              OFFSET -22.0324 0.085362 1.02216
              CHANNELS 3 Zrotation Xrotation Yrotation
              End Site
              {
                OFFSET -13.3284 -0.6 1.50291
              }
            }
          }
        }
      }
    }
  }
  JOINT LeftUpLeg
  {
    OFFSET 8.9458 -8.66707 0.101652
    CHANNELS 3 Zrotation Xrotation Yrotation
    JOINT LeftLeg
    {
      OFFSET 0 -44.4227 1.3727
      CHANNELS 3 Zrotation Xrotation Yrotation
      JOINT LeftFoot
      {
        OFFSET -0.253549 -42.0924 -1.46059
        CHANNELS 3 Zrotation Xrotation Yrotation
        JOINT LeftToes
        {
          OFFSET -0.04 -4.41509 8.4991
          CHANNELS 3 Zrotation Xrotation Yrotation
          End Site
          {
            OFFSET 0.08 -0.047448 9.77979
          }
        }
      }
    }
  }
}
MOTION
Frames:	12
Frame Time:	0.0333333
-99.6177 111.833 -91.3331 -1.05784 3.80642 78.9998 -3.18069 0.387728 -2.25924 -2.3043 7.39508 -5.52207 4.34769 -19.087 0.190115 0.0462048 0.000530889 0.662642 -5.89499 -3.30749 -1.26452 1.71046 9.31272 -1.58402 1.86886 4.47619 -4.27946 -33.2377 -3.8926 13.3914 -82.7897 -42.4579 -40.5804 -173.907 56.8734 178.247 9.69485 8.91601 -7.41763 31.0701 -1.03951 -6.85897 55.544 -22.7554 23.2637 14.9719 69.3248 -1.88257 -2.33368 9.81614 0.248689 -3.3379 -3.55071 1.00738 0.585933 11.9612 21.3919 -3.98557 -22.142 -0.397971 -1.33205e-009 8.7521e-006 -1.46422e-008 
-99.6401 111.833 -91.3255 -1.02682 3.79989 78.9962 -3.1725 0.401062 -2.25544 -2.30946 7.41113 -5.52094 4.34335 -19.0877 0.190116 0.0462048 0.000530889 0.662642 -5.85477 -3.26632 -1.23457 1.68519 9.29413 -1.55009 1.87331 4.4759 -4.23828 -33.2076 -3.87368 13.3511 -82.8954 -42.4734 -40.6268 -173.898 56.7502 178.321 9.75174 8.90792 -7.44059 31.0748 -1.03948 -6.87167 55.5395 -22.744 23.2244 14.8787 69.349 -1.76965 -2.34155 9.81611 0.289572 -3.32803 -3.54192 1.0146 0.579321 11.9816 21.389 -3.95535 -22.1525 -0.398001 -1.33205e-009 8.7521e-006 -1.46422e-008 
-99.6866 111.833 -91.305 -0.954763 3.78907 78.983 -3.14855 0.42959 -2.23752 -2.32834 7.45578 -5.52434 4.31987 -19.0941 0.190123 0.0462048 0.000530889 0.662642 -5.80882 -3.18936 -1.19015 1.64951 9.29172 -1.50221 1.90525 4.4617 -4.10132 -33.167 -3.84904 13.2989 -83.0252 -42.4589 -40.6652 -173.888 56.666 178.382 9.88621 8.89686 -7.39001 31.0872 -1.03864 -6.88616 55.5725 -22.7365 23.2281 14.9186 69.383 -1.81407 -2.36147 9.81606 0.338152 -3.29885 -3.51516 1.049 0.561024 12.0321 21.3565 -3.93857 -22.1681 -0.398045 -1.33205e-009 8.7521e-006 -1.46422e-008 
-99.7429 111.833 -91.2774 -0.905302 3.7796 78.9501 -3.10565 0.411636 -2.19017 -2.36136 7.52611 -5.54203 4.29549 -19.1079 0.190139 0.0462048 0.000530889 0.662642 -5.7623 -3.16038 -1.16681 1.58382 9.34491 -1.46702 1.96123 4.42291 -3.93357 -33.1289 -3.84048 13.2867 -83.0651 -42.3949 -40.6477 -173.885 56.7759 178.341 9.96281 8.89654 -7.28497 31.0949 -1.03211 -6.86554 55.6719 -22.7451 23.2958 15.072 69.4177 -2.0069 -2.39387 9.81605 0.347499 -3.25007 -3.51987 1.10651 0.52325 12.0919 21.3188 -3.95191 -22.1715 -0.398054 -1.33205e-009 8.7521e-006 -1.46422e-008 
-99.7991 111.833 -91.2517 -0.918445 3.78019 78.9075 -3.06694 0.322361 -2.13746 -2.38721 7.59743 -5.54751 4.28792 -19.1112 0.190143 0.0462048 0.000530889 0.662642 -5.71439 -3.1963 -1.15385 1.50748 9.40616 -1.4347 1.98446 4.43563 -3.87686 -33.0961 -3.83821 13.2892 -83.0545 -42.3464 -40.6037 -173.888 56.8999 178.279 9.88407 8.90567 -7.28172 31.091 -1.02162 -6.83769 55.7942 -22.7672 23.3552 15.1044 69.4837 -2.07523 -2.41213 9.81606 0.337965 -3.20882 -3.58546 1.14436 0.49484 12.1347 21.3308 -3.96097 -22.1557 -0.39801 -1.33205e-009 8.7521e-006 -1.46422e-008 
-99.8512 111.833 -91.2276 -0.959114 3.78314 78.9074 -3.04266 0.233271 -2.11175 -2.38152 7.62804 -5.56031 4.27123 -19.0942 0.188503 0.0462048 0.000530889 0.662642 -5.69782 -3.22143 -1.141 1.48558 9.4094 -1.4132 1.94757 4.57052 -3.97924 -33.0736 -3.82064 13.2502 -83.0504 -42.3595 -40.5632 -173.895 56.8599 178.28 9.73342 8.91063 -7.42133 31.1006 -1.02958 -6.85823 55.8466 -22.7511 23.3804 15.0443 69.5124 -2.00983 -2.409 9.81608 0.324126 -3.17826 -3.67457 1.15303 0.489659 12.1642 21.3352 -3.96871 -22.1333 -0.397946 -1.33205e-009 8.7521e-006 -1.46422e-008 
-99.9011 111.833 -91.1958 -0.980177 3.76986 78.9776 -3.00476 0.207097 -2.09704 -2.35537 7.60945 -5.64036 4.21201 -19.0647 0.181828 0.0462048 0.000530889 0.662642 -5.71568 -3.18544 -1.15464 1.50654 9.36706 -1.43122 1.9175 4.77269 -4.13021 -33.0596 -3.7977 13.1954 -83.0339 -42.3889 -40.5401 -173.904 56.7677 178.3 9.66257 8.90564 -7.56765 31.1599 -1.0517 -6.9123 55.809 -22.6675 23.415 15.0919 69.4072 -2.02139 -2.39985 9.81611 0.286836 -3.12085 -3.7501 1.18108 0.47813 12.2152 21.2289 -3.98887 -22.1233 -0.397918 -1.33205e-009 8.7521e-006 -1.46422e-008 
-99.9485 111.834 -91.1531 -0.979396 3.751 79.0439 -2.94724 0.202061 -2.06459 -2.34656 7.6015 -5.74767 4.13515 -19.0491 0.173485 0.0462048 0.000530889 0.662642 -5.72949 -3.12688 -1.19722 1.49137 9.34017 -1.47121 1.95499 4.89791 -4.21123 -33.0538 -3.80285 13.2099 -82.9903 -42.3762 -40.551 -173.91 56.7845 178.279 9.69324 8.89984 -7.61637 31.2461 -1.06311 -6.93507 55.7954 -22.6244 23.4803 15.2195 69.2978 -2.14894 -2.38394 9.81613 0.260945 -3.04257 -3.80687 1.23927 0.444528 12.284 21.0936 -3.99389 -22.1232 -0.397918 -1.33205e-009 8.7521e-006 -1.46422e-008 
-99.9888 111.835 -91.1052 -0.960972 3.75505 79.0157 -2.90933 0.168946 -2.03169 -2.36682 7.65792 -5.75722 4.09253 -19.0624 0.169544 0.0462048 0.000530889 0.662642 -5.74429 -3.07871 -1.21476 1.45869 9.34197 -1.47907 2.01317 4.88832 -4.20877 -33.0641 -3.83532 13.2898 -82.9617 -42.3385 -40.5754 -173.915 56.8318 178.248 9.74231 8.89779 -7.58899 31.2765 -1.05508 -6.91078 55.8981 -22.7344 23.5415 15.2758 69.4075 -2.28519 -2.35922 9.81607 0.327049 -3.00716 -3.82113 1.26378 0.4299 12.3118 21.1114 -3.9847 -22.1116 -0.398127 -1.33205e-009 8.7521e-006 -1.46422e-008 
-100.023 111.837 -91.0548 -0.915852 3.76697 78.9404 -2.89292 0.155852 -2.01984 -2.3855 7.7237 -5.68393 4.07694 -19.0756 0.168351 0.0462048 0.000530889 0.662642 -5.8063 -3.00326 -1.18763 1.51645 9.32385 -1.46289 2.02425 4.84704 -4.14397 -33.0895 -3.85497 13.3334 -82.9553 -42.3227 -40.5447 -173.924 56.7769 178.25 9.78107 8.90136 -7.48338 31.2199 -1.04087 -6.87783 56.0093 -22.8753 23.5524 15.2878 69.6227 -2.38235 -2.35341 9.81594 0.447336 -3.01616 -3.77843 1.2314 0.467783 12.2909 21.2302 -4.0194 -22.082 -0.401484 -1.33205e-009 8.7521e-006 -1.46422e-008 
-100.057 111.839 -91.0002 -0.866959 3.74404 78.9378 -2.84476 0.210717 -2.00338 -2.37512 7.70073 -5.6877 4.03727 -19.051 0.163556 0.0462048 0.000530889 0.662642 -5.88121 -2.88064 -1.17215 1.63688 9.25309 -1.47894 2.01022 4.91416 -4.03026 -33.1131 -3.84549 13.3034 -82.9358 -42.3302 -40.4608 -173.937 56.6777 178.265 9.83079 8.91334 -7.25643 31.1687 -1.03591 -6.86914 55.9456 -22.835 23.4842 15.2686 69.6052 -2.3243 -2.37335 9.8159 0.471813 -2.99054 -3.741 1.2086 0.524873 12.2979 21.2331 -4.08763 -22.0507 -0.409376 -1.33205e-009 8.7521e-006 -1.46422e-008 
-100.091 111.841 -90.9434 -0.853548 3.70446 78.9821 -2.76953 0.269111 -1.96742 -2.34888 7.61622 -5.77062 3.97084 -19.0124 0.155635 0.0462048 0.000530889 0.662642 -5.86398 -2.78391 -1.18679 1.64154 9.17896 -1.50209 1.99761 5.12381 -3.94879 -33.1233 -3.83243 13.2677 -82.9445 -42.3435 -40.4496 -173.934 56.6329 178.292 9.84687 8.92992 -7.01861 31.2235 -1.05222 -6.9079 55.7351 -22.6627 23.3593 15.0255 69.3603 -1.93412 -2.35845 9.8172 0.396207 -2.92664 -3.75722 1.22222 0.563498 12.3422 21.1572 -4.11029 -22.023 -0.41144 -1.33205e-009 8.7521e-006 -1.46422e-008 
